<?xml version="1.0" standalone="no"?>
<!DOCTYPE svg PUBLIC "-//W3C//DTD SVG 20010904//EN"
 "http://www.w3.org/TR/2001/REC-SVG-20010904/DTD/svg10.dtd">
<svg version="1.0" xmlns="http://www.w3.org/2000/svg"
 width="96.000000pt" height="110.000000pt" viewBox="0 0 96.000000 110.000000"
 preserveAspectRatio="xMidYMid meet">

<g transform="translate(0.000000,110.000000) scale(0.100000,-0.100000)"
fill="#000000" stroke="none">
<path d="M34 1066 l-34 -34 0 -412 0 -412 34 -34 c27 -27 42 -34 74 -34 39 0
40 0 46 -45 5 -32 15 -51 37 -70 l31 -25 340 0 340 0 29 29 29 29 0 377 c0
408 -1 419 -55 443 -14 7 -38 12 -53 12 -27 0 -27 0 -27 76 0 73 -2 77 -33
105 l-32 29 -346 0 -346 0 -34 -34z m717 -26 c17 -10 19 -23 19 -160 l0 -150
-356 2 -356 3 1 145 c1 122 4 147 18 158 22 16 644 18 674 2z m139 -220 c19
-19 20 -33 20 -377 0 -318 -2 -358 -17 -375 -15 -17 -39 -18 -330 -18 -198 0
-322 4 -334 10 -13 8 -19 21 -19 45 l0 35 268 0 c295 0 305 2 334 60 16 31 18
69 18 338 0 295 0 302 20 302 11 0 29 -9 40 -20z m-120 -369 c0 -181 -3 -231
-14 -240 -9 -8 -110 -11 -352 -9 l-339 3 -3 238 -2 237 355 0 355 0 0 -229z"/>
<path d="M270 880 l0 -100 25 0 25 0 0 100 0 100 -25 0 -25 0 0 -100z"/>
<path d="M500 880 l0 -100 25 0 25 0 0 100 0 100 -25 0 -25 0 0 -100z"/>
<path d="M160 865 c0 -84 0 -85 25 -85 25 0 25 1 25 85 0 84 0 85 -25 85 -25
0 -25 -1 -25 -85z"/>
<path d="M390 840 c0 -57 1 -60 25 -60 24 0 25 3 25 60 0 57 -1 60 -25 60 -24
0 -25 -3 -25 -60z"/>
<path d="M617 893 c-4 -3 -7 -30 -7 -60 0 -52 0 -53 30 -53 l30 0 0 60 c0 56
-1 60 -23 60 -13 0 -27 -3 -30 -7z"/>
<path d="M420 526 l0 -86 29 0 c15 0 56 -3 91 -7 l63 -6 -7 29 c-21 82 -71
134 -143 149 l-33 7 0 -86z m64 50 c40 -16 86 -74 86 -106 0 -21 -3 -22 -46
-16 -26 3 -55 6 -65 6 -17 0 -19 8 -19 65 0 36 2 65 5 65 3 0 21 -6 39 -14z"/>
<path d="M330 559 c-38 -15 -78 -58 -91 -96 -35 -107 70 -213 182 -183 l40 11
-27 47 c-15 26 -33 56 -41 67 -8 12 -13 48 -13 92 0 78 -3 81 -50 62z"/>
<path d="M430 405 c0 -2 16 -30 36 -60 30 -47 38 -54 50 -44 21 17 44 64 44
89 0 18 -6 20 -65 20 -36 0 -65 -2 -65 -5z"/>
</g>
</svg>
