<?xml version="1.0" standalone="no"?>
<!DOCTYPE svg PUBLIC "-//W3C//DTD SVG 20010904//EN"
 "http://www.w3.org/TR/2001/REC-SVG-20010904/DTD/svg10.dtd">
<svg version="1.0" xmlns="http://www.w3.org/2000/svg"
 width="100.000000pt" height="112.000000pt" viewBox="0 0 100.000000 112.000000"
 preserveAspectRatio="xMidYMid meet">

<g transform="translate(0.000000,112.000000) scale(0.100000,-0.100000)"
fill="#000000" stroke="none">
<path d="M20 1100 c-19 -19 -20 -33 -20 -489 0 -447 1 -470 19 -492 19 -24 22
-24 233 -27 173 -2 217 0 233 11 16 13 17 17 6 31 -12 14 -43 16 -227 16
l-214 0 2 457 3 458 382 3 383 2 2 -282 c3 -275 4 -283 23 -283 19 0 20 8 23
290 2 286 2 290 -19 308 -19 16 -55 17 -415 17 -381 0 -395 -1 -414 -20z"/>
<path d="M244 805 c-12 -31 7 -35 196 -35 190 0 215 5 190 35 -18 22 -378 22
-386 0z"/>
<path d="M244 615 c-12 -31 7 -35 190 -35 149 0 186 3 196 15 25 30 0 35 -191
35 -157 0 -191 -3 -195 -15z"/>
<path d="M253 443 c-18 -7 -16 -40 3 -47 9 -3 51 -6 94 -6 43 0 85 3 94 6 21
8 21 40 0 48 -19 7 -173 7 -191 -1z"/>
<path d="M675 432 c-47 -23 -89 -65 -105 -107 -26 -68 -4 -171 47 -217 50 -45
160 -62 215 -34 26 14 28 13 69 -31 l41 -45 29 28 29 27 -40 43 c-22 24 -40
45 -40 48 0 2 7 23 15 46 21 59 19 88 -10 147 -48 95 -160 138 -250 95z m156
-45 c57 -38 81 -84 77 -144 -14 -165 -226 -206 -298 -57 -27 56 -21 112 17
162 48 63 141 81 204 39z"/>
</g>
</svg>
