<?xml version="1.0" standalone="no"?>
<!DOCTYPE svg PUBLIC "-//W3C//DTD SVG 20010904//EN"
 "http://www.w3.org/TR/2001/REC-SVG-20010904/DTD/svg10.dtd">
<svg version="1.0" xmlns="http://www.w3.org/2000/svg"
 width="88.000000pt" height="91.000000pt" viewBox="0 0 88.000000 91.000000"
 preserveAspectRatio="xMidYMid meet">

<g transform="translate(0.000000,91.000000) scale(0.100000,-0.100000)"
fill="#000000" stroke="none">
<path d="M7 903 c-4 -3 -7 -192 -7 -420 0 -360 2 -414 15 -419 8 -4 22 -1 31
6 13 11 22 7 57 -28 24 -23 47 -42 52 -42 5 0 29 19 52 42 l43 42 43 -42 c23
-23 47 -42 52 -42 5 0 28 19 52 42 l42 41 45 -41 c25 -23 49 -42 53 -42 4 0
27 19 50 42 l43 42 43 -42 c23 -23 47 -42 52 -42 5 0 28 19 52 42 35 35 44 39
57 28 9 -7 23 -10 31 -6 13 5 15 57 13 423 l-3 418 -431 3 c-237 1 -434 -1
-437 -5z m822 -400 l-1 -358 -49 -44 -50 -44 -42 41 c-24 23 -47 42 -52 42 -6
0 -29 -19 -53 -41 l-43 -41 -44 41 c-25 23 -50 41 -58 41 -7 0 -31 -18 -52
-40 l-39 -40 -41 40 c-22 22 -46 40 -53 40 -7 0 -32 -18 -56 -40 l-43 -39 -38
39 c-22 22 -45 40 -52 40 -10 0 -13 72 -13 360 l0 360 390 0 390 0 -1 -357z"/>
<path d="M140 775 c-23 -28 9 -72 45 -59 36 14 24 74 -15 74 -10 0 -23 -7 -30
-15z"/>
<path d="M320 775 c-23 -28 9 -72 45 -59 36 14 24 74 -15 74 -10 0 -23 -7 -30
-15z"/>
<path d="M500 775 c-23 -28 9 -72 45 -59 36 14 24 74 -15 74 -10 0 -23 -7 -30
-15z"/>
<path d="M682 778 c-18 -18 -15 -35 10 -52 15 -11 26 -12 40 -5 32 17 16 69
-22 69 -9 0 -21 -5 -28 -12z"/>
<path d="M200 615 c0 -9 -11 -20 -24 -25 -31 -12 -46 -39 -46 -85 0 -49 36
-85 85 -85 25 0 35 -4 32 -12 -2 -8 -24 -13 -58 -14 -53 -1 -54 -2 -54 -30 0
-23 6 -30 33 -38 17 -5 32 -15 32 -22 0 -9 11 -14 30 -14 20 0 30 5 30 15 0 9
11 20 24 25 31 11 46 39 46 84 0 46 -27 74 -80 82 -56 9 -45 29 16 29 48 0 49
1 52 33 3 27 0 32 -17 32 -12 0 -29 9 -38 20 -21 24 -63 27 -63 5z"/>
<path d="M407 594 c-4 -4 -7 -13 -7 -21 0 -11 34 -13 183 -11 154 3 182 5 182
18 0 13 -27 15 -176 18 -96 1 -178 -1 -182 -4z"/>
<path d="M407 474 c-4 -4 -7 -13 -7 -21 0 -11 34 -13 183 -11 154 3 182 5 182
18 0 13 -27 15 -176 18 -96 1 -178 -1 -182 -4z"/>
<path d="M403 344 c-10 -27 18 -34 132 -32 102 3 110 4 110 23 0 19 -8 20
-118 23 -101 2 -118 0 -124 -14z"/>
</g>
</svg>
