<?xml version="1.0" standalone="no"?>
<!DOCTYPE svg PUBLIC "-//W3C//DTD SVG 20010904//EN"
 "http://www.w3.org/TR/2001/REC-SVG-20010904/DTD/svg10.dtd">
<svg version="1.0" xmlns="http://www.w3.org/2000/svg"
 width="118.000000pt" height="105.000000pt" viewBox="0 0 118.000000 105.000000"
 preserveAspectRatio="xMidYMid meet">

<g transform="translate(0.000000,105.000000) scale(0.100000,-0.100000)"
fill="#000000" stroke="none">
<path d="M501 1036 c-34 -19 -50 -54 -51 -107 0 -42 -3 -48 -29 -59 -29 -12
-71 -1 -71 19 0 5 -16 16 -35 25 -30 15 -38 15 -67 2 -52 -22 -138 -116 -144
-158 -6 -32 -2 -41 33 -79 39 -43 40 -45 26 -77 -10 -25 -19 -32 -42 -32 -88
0 -121 -42 -121 -155 0 -118 31 -155 131 -155 33 0 40 -4 45 -25 5 -22 12 -25
48 -25 l42 0 -28 60 -29 60 -58 0 c-74 0 -83 10 -79 92 l3 63 56 5 c58 5 89
22 89 47 0 8 10 37 22 64 l21 50 -49 50 -49 49 57 56 56 57 44 -42 c25 -22 50
-41 55 -41 6 0 40 14 77 30 l66 30 0 58 c0 78 5 84 76 80 l59 -3 5 -68 5 -67
63 -30 c35 -17 69 -30 74 -30 6 0 31 19 56 41 l44 42 56 -56 56 -56 -48 -51
c-34 -37 -46 -56 -41 -68 4 -9 16 -39 27 -67 25 -64 40 -75 105 -75 l53 0 0
-75 0 -75 -57 0 c-32 0 -64 -4 -71 -9 -11 -7 -62 -103 -62 -117 0 -2 17 -4 38
-4 32 0 41 5 50 25 10 21 19 25 52 25 47 0 95 22 110 49 13 26 13 187 -1 213
-13 23 -67 48 -107 48 -22 0 -32 7 -44 32 -15 33 -15 33 23 75 57 62 54 89
-18 165 -32 33 -67 65 -77 70 -36 19 -77 11 -111 -22 -31 -30 -35 -32 -69 -20
-35 11 -36 13 -36 61 0 61 -11 84 -50 104 -36 19 -146 19 -179 1z"/>
<path d="M532 700 c-18 -8 -22 -15 -16 -32 16 -53 16 -54 1 -35 -18 22 -30 22
-52 -3 -18 -20 -17 -21 22 -68 40 -46 41 -47 102 -48 62 -1 63 0 102 44 44 51
44 51 25 77 -12 17 -16 17 -30 5 -16 -12 -16 -11 -5 14 9 20 10 29 1 38 -15
15 -120 21 -150 8z"/>
<path d="M460 411 c-88 -89 -132 -169 -138 -252 -5 -71 15 -114 66 -137 49
-22 337 -24 395 -3 126 44 95 233 -66 397 -78 80 -101 91 -92 47 l6 -28 -15
27 c-12 21 -23 26 -48 26 -27 -1 -46 -14 -108 -77z m92 47 c-7 -7 -12 -8 -12
-2 0 6 3 14 7 17 3 4 9 5 12 2 2 -3 -1 -11 -7 -17z m69 -108 c19 0 49 -31 49
-52 0 -25 -37 -24 -45 2 -10 32 -25 23 -25 -14 0 -28 5 -36 30 -46 71 -29 63
-116 -12 -143 -9 -3 -18 -16 -20 -29 -4 -23 -5 -22 -16 4 -6 16 -17 28 -24 28
-19 0 -58 42 -58 62 0 21 32 38 38 20 2 -6 12 -22 22 -34 l19 -23 1 43 c0 32
-4 44 -17 49 -34 12 -53 36 -53 66 0 34 25 67 50 67 10 0 21 10 24 23 l7 22 9
-22 c5 -13 15 -23 21 -23z"/>
<path d="M562 311 c-16 -10 -12 -43 6 -49 8 -2 12 7 12 27 0 34 0 34 -18 22z"/>
<path d="M600 166 c0 -39 10 -45 31 -20 9 11 10 20 3 32 -20 30 -34 25 -34
-12z"/>
</g>
</svg>
