<?xml version="1.0" standalone="no"?>
<!DOCTYPE svg PUBLIC "-//W3C//DTD SVG 20010904//EN"
 "http://www.w3.org/TR/2001/REC-SVG-20010904/DTD/svg10.dtd">
<svg version="1.0" xmlns="http://www.w3.org/2000/svg"
 width="101.000000pt" height="116.000000pt" viewBox="0 0 101.000000 116.000000"
 preserveAspectRatio="xMidYMid meet">

<g transform="translate(0.000000,116.000000) scale(0.100000,-0.100000)"
fill="#000000" stroke="none">
<path d="M391 1144 c-150 -32 -273 -130 -344 -272 l-42 -85 0 -126 c0 -111 3
-132 24 -181 57 -128 146 -222 261 -274 73 -33 105 -37 105 -13 0 13 -17 25
-56 41 -77 31 -116 57 -169 110 l-44 46 69 0 70 0 58 -70 c32 -39 62 -70 66
-70 17 0 -8 72 -33 99 -33 35 -33 41 4 41 23 0 30 4 30 20 0 17 -7 20 -51 20
l-50 0 -29 63 c-16 34 -30 80 -32 102 l-3 40 85 5 c72 4 85 8 86 23 2 15 -9
17 -87 17 l-88 0 6 33 c8 42 39 121 59 152 15 23 22 25 100 25 l84 0 0 -70 c0
-68 1 -70 25 -70 24 0 25 2 25 70 l0 70 85 0 85 0 20 -32 c11 -18 25 -50 32
-70 9 -30 16 -38 35 -38 12 0 23 2 23 5 0 3 -11 33 -25 67 -14 34 -25 63 -25
65 0 2 33 3 72 1 l73 -3 25 -67 c20 -55 29 -68 47 -68 20 0 21 3 11 38 -31
113 -132 243 -239 305 -54 32 -185 67 -243 66 -23 0 -70 -7 -105 -15z m-20
-99 c-34 -36 -68 -77 -77 -90 -15 -23 -23 -25 -92 -25 l-76 0 39 41 c53 54
123 97 193 120 31 10 61 18 66 18 4 1 -19 -28 -53 -64z m250 49 c74 -22 146
-64 199 -118 l44 -46 -76 0 c-69 0 -77 2 -92 25 -9 13 -43 54 -77 90 -34 36
-59 65 -57 65 2 0 29 -7 59 -16z m1 -116 l40 -48 -71 0 -71 0 0 77 0 77 31
-30 c17 -16 49 -50 71 -76z m-155 -45 c-3 -2 -35 -3 -72 -1 l-67 3 68 70 69
70 3 -69 c2 -37 1 -70 -1 -73z m-227 -48 c0 -3 -11 -32 -25 -64 -13 -33 -27
-78 -31 -100 l-7 -41 -68 0 c-38 0 -69 4 -69 9 0 29 22 113 40 154 l21 47 69
0 c39 0 70 -2 70 -5z m-57 -298 c4 -26 19 -73 32 -103 l24 -55 -72 3 -72 3
-22 55 c-12 30 -24 77 -28 103 l-7 48 68 -3 69 -3 8 -48z"/>
<path d="M491 666 c-8 -9 -11 -107 -9 -337 l3 -324 249 -3 c175 -2 253 1 262
9 11 9 14 72 14 330 0 304 -1 319 -19 329 -12 6 -112 10 -254 10 -186 0 -237
-3 -246 -14z m487 -328 l-3 -313 -233 0 -233 0 0 308 c0 169 1 309 1 312 0 3
106 5 235 5 l235 0 -2 -312z"/>
<path d="M570 530 l0 -50 175 0 175 0 0 50 0 50 -175 0 -175 0 0 -50z"/>
<path d="M560 355 l0 -36 42 3 c39 3 42 5 42 33 0 28 -3 30 -42 33 l-42 3 0
-36z"/>
<path d="M700 355 c0 -34 1 -35 40 -35 39 0 40 1 40 35 0 34 -1 35 -40 35 -39
0 -40 -1 -40 -35z"/>
<path d="M840 355 c0 -34 1 -35 40 -35 39 0 40 1 40 35 0 34 -1 35 -40 35 -39
0 -40 -1 -40 -35z"/>
<path d="M562 228 c3 -28 7 -34 31 -36 44 -5 54 3 49 37 -4 29 -7 31 -44 31
-38 0 -39 -1 -36 -32z"/>
<path d="M702 228 c3 -30 6 -33 41 -36 36 -3 37 -3 37 32 0 35 -1 36 -41 36
-39 0 -40 -1 -37 -32z"/>
<path d="M842 228 c3 -30 6 -33 41 -36 36 -3 37 -3 37 32 0 35 -1 36 -41 36
-39 0 -40 -1 -37 -32z"/>
<path d="M567 133 c-4 -3 -7 -19 -7 -35 0 -26 3 -28 39 -28 35 0 39 3 43 30 3
17 2 32 0 35 -8 7 -68 6 -75 -2z"/>
<path d="M700 105 c0 -34 1 -35 40 -35 39 0 40 1 40 35 0 34 -1 35 -40 35 -39
0 -40 -1 -40 -35z"/>
<path d="M847 133 c-4 -3 -7 -19 -7 -35 0 -26 3 -28 40 -28 39 0 40 1 40 35 0
33 -2 35 -33 35 -19 0 -37 -3 -40 -7z"/>
</g>
</svg>
