<?xml version="1.0" standalone="no"?>
<!DOCTYPE svg PUBLIC "-//W3C//DTD SVG 20010904//EN"
 "http://www.w3.org/TR/2001/REC-SVG-20010904/DTD/svg10.dtd">
<svg version="1.0" xmlns="http://www.w3.org/2000/svg"
 width="96.000000pt" height="129.000000pt" viewBox="0 0 96.000000 129.000000"
 preserveAspectRatio="xMidYMid meet">

<g transform="translate(0.000000,129.000000) scale(0.100000,-0.100000)"
fill="#000000" stroke="none">
<path d="M17 1272 c-15 -17 -17 -68 -17 -534 0 -486 1 -516 18 -531 16 -15 48
-17 245 -17 213 0 227 1 237 19 5 11 10 22 10 25 0 3 -103 6 -230 6 l-230 0 0
500 0 500 230 0 229 0 3 -157 3 -158 147 -3 147 -3 3 -147 3 -147 28 -3 27 -3
0 166 0 167 -162 169 -161 169 -257 0 c-236 0 -258 -1 -273 -18z m651 -292
c-51 -3 -95 -4 -98 -3 -3 0 -4 45 -2 99 l3 97 95 -94 95 -94 -93 -5z"/>
<path d="M170 1090 c0 -18 7 -20 85 -20 78 0 85 2 85 20 0 18 -7 20 -85 20
-78 0 -85 -2 -85 -20z"/>
<path d="M170 950 c0 -20 5 -21 123 -18 100 3 122 6 122 18 0 12 -22 15 -122
18 -118 3 -123 2 -123 -18z"/>
<path d="M170 810 c0 -20 4 -20 263 -18 225 3 262 5 262 18 0 13 -37 15 -262
18 -259 2 -263 2 -263 -18z"/>
<path d="M170 670 c0 -19 7 -20 254 -20 200 0 256 3 265 13 6 8 8 17 4 20 -3
4 -123 7 -265 7 -251 0 -258 -1 -258 -20z"/>
<path d="M680 590 c-14 -11 -37 -20 -52 -20 -32 0 -56 -22 -64 -58 -3 -15 -14
-43 -25 -63 -24 -46 -24 -61 0 -83 10 -9 21 -34 25 -56 7 -44 36 -70 78 -70
15 0 30 -5 33 -11 4 -5 18 -15 32 -20 20 -7 33 -5 60 11 19 11 42 20 52 20 31
0 71 39 71 69 0 15 9 36 20 46 25 23 25 62 0 100 -11 17 -20 39 -20 50 0 33
-28 65 -58 65 -15 0 -40 9 -57 20 -38 25 -63 25 -95 0z m106 -89 c90 -55 52
-201 -52 -201 -70 0 -113 41 -114 109 0 36 6 49 34 77 40 40 83 45 132 15z"/>
<path d="M170 525 c0 -13 26 -15 170 -15 144 0 170 2 170 15 0 13 -26 15 -170
15 -144 0 -170 -2 -170 -15z"/>
<path d="M170 385 c0 -13 21 -15 125 -15 104 0 125 2 125 15 0 13 -21 15 -125
15 -104 0 -125 -2 -125 -15z"/>
<path d="M537 158 c-51 -91 -51 -103 -3 -104 30 0 41 -6 54 -27 9 -15 21 -27
27 -27 10 0 85 131 85 148 0 11 -55 42 -76 42 -9 0 -25 7 -35 16 -15 14 -19
10 -52 -48z"/>
<path d="M870 205 c-7 -8 -21 -15 -33 -15 -11 0 -35 -9 -53 -21 l-34 -21 38
-71 c21 -39 43 -72 50 -75 7 -2 20 10 29 26 15 26 21 29 55 24 50 -6 50 11 -1
101 -33 58 -40 65 -51 52z"/>
</g>
</svg>
