<?xml version="1.0" standalone="no"?>
<!DOCTYPE svg PUBLIC "-//W3C//DTD SVG 20010904//EN"
 "http://www.w3.org/TR/2001/REC-SVG-20010904/DTD/svg10.dtd">
<svg version="1.0" xmlns="http://www.w3.org/2000/svg"
 width="91.000000pt" height="117.000000pt" viewBox="0 0 91.000000 117.000000"
 preserveAspectRatio="xMidYMid meet">

<g transform="translate(0.000000,117.000000) scale(0.100000,-0.100000)"
fill="#000000" stroke="none">
<path d="M65 1145 c-15 -14 -25 -36 -25 -53 0 -16 -9 -37 -20 -47 -11 -10 -20
-26 -20 -36 0 -11 9 -24 20 -31 27 -17 27 -69 0 -93 -26 -23 -26 -51 0 -67 27
-17 27 -69 0 -93 -11 -10 -20 -26 -20 -36 0 -11 9 -24 20 -31 28 -18 28 -78 0
-96 -26 -16 -26 -44 0 -67 12 -11 20 -31 20 -49 0 -20 -7 -36 -20 -44 -26 -16
-26 -44 0 -67 15 -14 20 -31 20 -70 0 -88 3 -90 193 -93 l164 -3 5 25 5 26
-121 0 c-138 0 -160 8 -154 55 l3 30 133 3 132 3 0 124 c0 134 8 166 47 184
15 7 99 11 223 11 l200 0 0 270 0 270 -390 0 -391 0 -24 -25z m245 -124 c0 -5
12 -11 28 -13 21 -2 28 -9 30 -32 4 -28 3 -29 -37 -23 -47 6 -87 -15 -61 -33
8 -5 29 -10 47 -10 58 0 88 -89 43 -127 -11 -10 -29 -26 -40 -35 -24 -22 -60
-24 -60 -4 0 9 -12 16 -27 18 -22 2 -28 8 -28 28 0 23 4 25 55 30 62 6 71 22
16 31 -52 8 -76 34 -76 81 0 36 3 41 55 88 13 12 55 12 55 1z m458 -33 c3 -17
-10 -18 -157 -18 -128 0 -161 3 -161 13 0 8 3 17 7 21 4 3 75 5 157 4 134 -3
151 -5 154 -20z m-60 -105 c-3 -16 -17 -18 -128 -18 -111 0 -125 2 -128 18 -3
15 8 17 128 17 120 0 131 -2 128 -17z m-38 -103 c0 -19 -7 -20 -110 -20 -103
0 -110 1 -110 20 0 19 7 20 110 20 103 0 110 -1 110 -20z"/>
<path d="M485 538 c-3 -8 -4 -130 -3 -273 l3 -260 210 0 210 0 0 270 0 270
-208 3 c-162 2 -209 0 -212 -10z m405 -263 l0 -255 -195 0 -195 0 0 255 0 255
195 0 195 0 0 -255z"/>
<path d="M550 435 l0 -45 146 0 145 0 -3 43 -3 42 -142 3 -143 3 0 -46z"/>
<path d="M550 290 c0 -29 2 -31 33 -28 27 2 32 7 32 28 0 21 -5 26 -32 28 -31
3 -33 1 -33 -28z"/>
<path d="M660 290 c0 -28 3 -30 35 -30 32 0 35 2 35 30 0 28 -3 30 -35 30 -32
0 -35 -2 -35 -30z"/>
<path d="M779 315 c-9 -38 -2 -50 29 -53 30 -3 32 -1 32 27 0 28 -3 31 -30 31
-16 0 -30 -2 -31 -5z"/>
<path d="M550 190 c0 -29 2 -31 33 -28 27 2 32 7 32 28 0 21 -5 26 -32 28 -31
3 -33 1 -33 -28z"/>
<path d="M660 191 c0 -29 3 -31 36 -31 33 0 35 2 32 28 -2 22 -8 28 -35 30
-31 3 -33 1 -33 -27z"/>
<path d="M779 215 c-9 -38 -2 -50 29 -53 30 -3 32 -1 32 27 0 28 -3 31 -30 31
-16 0 -30 -2 -31 -5z"/>
<path d="M557 114 c-4 -4 -7 -18 -7 -31 0 -20 5 -23 36 -23 33 0 35 2 32 28
-2 20 -9 28 -28 30 -14 2 -29 0 -33 -4z"/>
<path d="M667 114 c-4 -4 -7 -18 -7 -31 0 -20 5 -23 36 -23 33 0 35 2 32 28
-2 20 -9 28 -28 30 -14 2 -29 0 -33 -4z"/>
<path d="M780 91 c0 -28 3 -31 31 -31 27 0 30 3 27 28 -2 21 -9 28 -30 30 -25
3 -28 0 -28 -27z"/>
</g>
</svg>
