<?xml version="1.0" standalone="no"?>
<!DOCTYPE svg PUBLIC "-//W3C//DTD SVG 20010904//EN"
 "http://www.w3.org/TR/2001/REC-SVG-20010904/DTD/svg10.dtd">
<svg version="1.0" xmlns="http://www.w3.org/2000/svg"
 width="104.000000pt" height="135.000000pt" viewBox="0 0 104.000000 135.000000"
 preserveAspectRatio="xMidYMid meet">

<g transform="translate(0.000000,135.000000) scale(0.100000,-0.100000)"
fill="#000000" stroke="none">
<path d="M21 1324 c-21 -26 -21 -36 -21 -569 0 -519 1 -544 19 -566 19 -23 24
-24 190 -27 94 -2 171 -1 171 2 0 3 -5 17 -12 31 l-11 25 -149 0 -148 0 0 335
0 335 418 -2 417 -3 5 -85 c5 -82 26 -140 52 -140 5 0 8 131 6 326 l-3 326
-24 19 c-22 18 -45 19 -456 19 l-434 0 -20 -26z m877 -211 l-3 -178 -417 -3
-418 -2 0 180 0 180 420 0 420 0 -2 -177z"/>
<path d="M310 1085 l0 -105 35 0 35 0 0 105 0 105 -35 0 -35 0 0 -105z"/>
<path d="M580 1085 l0 -105 35 0 35 0 0 105 0 105 -35 0 -35 0 0 -105z"/>
<path d="M170 1070 l0 -90 35 0 35 0 0 90 0 90 -35 0 -35 0 0 -90z"/>
<path d="M440 1045 l0 -65 35 0 35 0 0 65 0 65 -35 0 -35 0 0 -65z"/>
<path d="M720 1045 l0 -65 35 0 35 0 0 65 0 65 -35 0 -35 0 0 -65z"/>
<path d="M308 813 c-2 -5 -2 -43 0 -85 l4 -78 80 0 81 0 -6 35 c-8 50 -43 94
-91 116 -44 20 -63 23 -68 12z m61 -28 c37 -19 81 -71 81 -96 0 -18 -6 -20
-62 -17 l-63 3 -3 63 c-3 67 1 71 47 47z"/>
<path d="M547 794 c-4 -4 -7 -16 -7 -26 0 -16 10 -18 121 -18 119 0 120 0 117
23 -3 21 -8 22 -114 25 -60 1 -113 -1 -117 -4z"/>
<path d="M203 764 c-69 -34 -98 -134 -58 -201 28 -47 87 -76 141 -70 25 2 48
7 51 10 3 3 -11 35 -31 71 -32 57 -36 72 -36 135 0 80 -6 85 -67 55z"/>
<path d="M540 665 c0 -24 2 -25 75 -25 73 0 75 1 75 25 0 24 -2 25 -75 25 -73
0 -75 -1 -75 -25z"/>
<path d="M645 494 c-110 -91 -201 -168 -203 -173 -2 -5 37 -56 86 -113 l89
-105 127 103 c70 57 164 134 210 172 l83 68 -89 107 c-50 59 -93 107 -96 106
-4 0 -97 -75 -207 -165z m263 28 c17 -23 27 -48 27 -70 0 -34 -7 -42 -133
-142 -118 -95 -138 -107 -170 -106 -49 1 -94 50 -96 104 -1 36 3 41 135 148
127 102 139 110 173 106 28 -3 44 -13 64 -40z"/>
<path d="M694 432 c-63 -41 -11 -139 60 -113 39 16 50 75 18 104 -19 18 -59
22 -78 9z"/>
<path d="M320 616 c0 -8 52 -96 59 -101 14 -8 50 39 57 73 l7 32 -62 0 c-33 0
-61 -2 -61 -4z"/>
<path d="M830 234 c-204 -166 -204 -166 -222 -159 -13 5 -74 74 -135 152 -10
13 -15 14 -27 4 -13 -11 -2 -29 76 -121 l91 -109 56 44 c181 143 356 293 356
305 0 35 -40 11 -195 -116z"/>
</g>
</svg>
