<?xml version="1.0" standalone="no"?>
<!DOCTYPE svg PUBLIC "-//W3C//DTD SVG 20010904//EN"
 "http://www.w3.org/TR/2001/REC-SVG-20010904/DTD/svg10.dtd">
<svg version="1.0" xmlns="http://www.w3.org/2000/svg"
 width="109.000000pt" height="110.000000pt" viewBox="0 0 109.000000 110.000000"
 preserveAspectRatio="xMidYMid meet">

<g transform="translate(0.000000,110.000000) scale(0.100000,-0.100000)"
fill="#000000" stroke="none">
<path d="M360 1082 c-167 -44 -297 -174 -341 -344 -23 -86 -24 -142 -4 -227
22 -93 69 -173 140 -239 68 -64 122 -94 210 -117 111 -29 224 -17 327 35 l57
28 98 -108 c110 -123 93 -120 188 -31 l56 53 -104 111 -104 112 28 53 c135
268 -20 599 -317 676 -78 20 -151 19 -234 -2z m302 -79 c126 -60 215 -179 240
-322 30 -176 -71 -367 -236 -445 -214 -101 -470 -10 -570 204 -59 126 -45 310
33 417 60 82 138 141 224 169 26 9 79 13 142 11 89 -2 107 -5 167 -34z"/>
<path d="M635 840 c-4 -6 -2 -17 4 -24 18 -21 -48 -66 -96 -66 -41 0 -69 19
-97 63 -21 34 -64 34 -82 0 -15 -32 -58 -63 -87 -63 -33 0 -61 -33 -53 -64 12
-47 81 -46 93 2 10 40 41 60 86 57 42 -3 97 -37 97 -60 0 -19 32 -35 57 -29
11 3 25 16 31 28 6 13 28 37 50 54 l40 32 14 -22 c15 -22 15 -22 25 -3 6 11
13 37 16 58 6 37 5 37 -28 37 -18 0 -40 3 -48 6 -8 3 -18 0 -22 -6z"/>
<path d="M365 668 c-3 -8 -4 -72 -3 -144 l3 -129 40 0 40 0 0 140 0 140 -38 3
c-24 2 -39 -1 -42 -10z"/>
<path d="M640 535 l0 -145 40 0 40 0 0 145 0 145 -40 0 -40 0 0 -145z"/>
<path d="M502 488 l3 -93 40 0 40 0 3 93 3 92 -46 0 -46 0 3 -92z"/>
<path d="M230 480 l0 -90 40 0 40 0 0 90 0 90 -40 0 -40 0 0 -90z"/>
</g>
</svg>
