<?xml version="1.0" standalone="no"?>
<!DOCTYPE svg PUBLIC "-//W3C//DTD SVG 20010904//EN"
 "http://www.w3.org/TR/2001/REC-SVG-20010904/DTD/svg10.dtd">
<svg version="1.0" xmlns="http://www.w3.org/2000/svg"
 width="33.000000pt" height="33.000000pt" viewBox="0 0 33.000000 33.000000"
 preserveAspectRatio="xMidYMid meet">

<g transform="translate(0.000000,33.000000) scale(0.100000,-0.100000)"
fill="#EC3801" stroke="none">
<path d="M114 320 c-46 -14 -100 -79 -109 -130 -6 -38 -4 -45 15 -60 16 -12
20 -23 16 -37 -5 -15 2 -28 28 -50 103 -91 266 -11 266 131 0 36 -41 105 -74
125 -39 25 -100 33 -142 21z m135 -29 c37 -26 60 -62 65 -99 4 -34 -10 -54
-20 -28 -8 21 -21 20 -27 -1 -4 -15 -6 -14 -12 5 -8 24 -24 25 -35 1 -4 -8
-12 -24 -19 -37 -6 -13 -10 -26 -7 -30 7 -11 -41 -69 -49 -60 -6 6 -12 40 -14
85 -1 6 -11 13 -22 15 -32 4 -47 33 -31 58 6 11 12 26 12 34 0 9 10 24 22 36
12 11 18 20 14 20 -5 0 -3 7 4 15 16 19 84 11 119 -14z"/>
<path d="M145 230 c-4 -6 3 -10 14 -10 25 0 27 6 6 13 -8 4 -17 2 -20 -3z"/>
</g>
</svg>
