<?xml version="1.0" standalone="no"?>
<!DOCTYPE svg PUBLIC "-//W3C//DTD SVG 20010904//EN"
 "http://www.w3.org/TR/2001/REC-SVG-20010904/DTD/svg10.dtd">
<svg version="1.0" xmlns="http://www.w3.org/2000/svg"
 width="33.000000pt" height="33.000000pt" viewBox="0 0 33.000000 33.000000"
 preserveAspectRatio="xMidYMid meet">

<g transform="translate(0.000000,33.000000) scale(0.100000,-0.100000)"
fill="#EC3801" stroke="none">
<path d="M35 290 l-39 -40 34 -35 c19 -19 38 -35 44 -35 5 0 -5 16 -24 35
l-34 35 32 32 c31 32 57 34 32 3 -12 -14 -10 -15 12 -10 30 8 45 -9 28 -30 -7
-9 -8 -15 -2 -15 5 0 15 7 22 15 11 13 8 21 -20 50 -19 19 -37 35 -40 35 -3 0
-24 -18 -45 -40z"/>
<path d="M133 208 c-98 -101 -111 -118 -117 -156 l-7 -44 43 7 c38 6 57 21
161 124 l119 118 -27 31 c-15 18 -34 32 -44 32 -9 0 -66 -51 -128 -112z m-47
-123 c28 -28 27 -49 -2 -52 -32 -4 -57 22 -50 51 8 33 20 33 52 1z"/>
<path d="M241 128 c-13 -21 -13 -22 2 -10 23 19 40 5 32 -27 -5 -21 -4 -24 6
-13 17 16 29 15 29 -1 0 -16 -41 -57 -57 -57 -6 0 -23 14 -38 31 -14 17 -29
29 -32 25 -8 -8 57 -76 72 -76 14 0 75 62 75 76 0 10 -61 74 -71 74 -2 0 -10
-10 -18 -22z"/>
</g>
</svg>
