<?xml version="1.0" standalone="no"?>
<!DOCTYPE svg PUBLIC "-//W3C//DTD SVG 20010904//EN"
 "http://www.w3.org/TR/2001/REC-SVG-20010904/DTD/svg10.dtd">
<svg version="1.0" xmlns="http://www.w3.org/2000/svg"
 width="40.000000pt" height="37.000000pt" viewBox="0 0 40.000000 37.000000"
 preserveAspectRatio="xMidYMid meet">

<g transform="translate(0.000000,37.000000) scale(0.100000,-0.100000)"
fill="#EC3801" stroke="none">
<path d="M270 355 c-10 -12 -10 -19 -2 -27 7 -7 12 -21 12 -31 0 -14 -5 -18
-20 -14 -11 3 -20 1 -20 -4 0 -5 14 -9 30 -9 25 0 30 4 30 23 0 13 5 28 12 35
8 8 8 15 -2 27 -7 8 -16 15 -20 15 -4 0 -13 -7 -20 -15z"/>
<path d="M143 343 c-7 -2 -13 -14 -13 -25 0 -18 -5 -20 -34 -15 -42 7 -60 -10
-51 -46 5 -20 1 -29 -19 -42 -32 -21 -33 -47 -4 -60 18 -8 23 -18 23 -50 l0
-40 42 3 c37 2 42 -1 45 -20 2 -17 10 -23 28 -23 22 0 25 5 28 38 3 34 1 37
-23 37 -37 0 -62 16 -81 51 -13 26 -13 36 -3 60 15 37 45 59 82 59 26 0 28 2
25 37 -3 37 -17 48 -45 36z"/>
<path d="M350 335 c-10 -12 -10 -19 -2 -27 7 -7 12 -27 12 -45 0 -33 0 -33
-51 -33 -31 0 -48 -4 -44 -10 7 -11 74 -14 99 -4 11 4 16 19 16 43 0 20 5 42
12 49 8 8 8 15 -2 27 -7 8 -16 15 -20 15 -4 0 -13 -7 -20 -15z"/>
<path d="M132 224 c-12 -8 -22 -25 -22 -38 0 -26 28 -56 53 -56 21 0 57 35 57
55 0 18 -35 55 -53 55 -7 0 -23 -7 -35 -16z"/>
<path d="M345 171 c-3 -6 -25 -12 -48 -13 -40 -1 -40 -1 -7 -5 19 -2 45 -9 57
-15 28 -14 55 -3 51 19 -4 20 -43 30 -53 14z"/>
<path d="M263 93 c29 -3 37 -9 37 -24 0 -10 -4 -19 -10 -19 -5 0 -10 -9 -10
-19 0 -20 25 -35 41 -25 13 7 11 41 -2 50 -6 3 -9 15 -6 25 5 17 0 19 -41 17
-44 -1 -45 -2 -9 -5z"/>
</g>
</svg>
